<?xml version="1.0" encoding="UTF-8"?>
<svg xmlns="http://www.w3.org/2000/svg" width="16" height="16" viewBox="0 0 16 16">
  <path fill="#bebebe" d="M2.5 7v4.5c0 .55.45 1 1 1h1V15h1.5v-2.5h4V15H11.5v-2.5h1c.55 0 1-.45 1-1V7h-11zM1 7c-.55 0-1 .45-1 1v3c0 .55.45 1 1 1s1-.45 1-1V8c0-.55-.45-1-1-1zm14 0c-.55 0-1 .45-1 1v3c0 .55.45 1 1 1s1-.45 1-1V8c0-.55-.45-1-1-1zM10.77 2.43l.87-.87a.33.33 0 000-.47.33.33 0 00-.47 0l-1 1A4.49 4.49 0 008 1.5c-.8 0-1.54.22-2.17.59l-1-1a.33.33 0 00-.47 0 .33.33 0 000 .47l.87.87A4.01 4.01 0 003.5 6h9a4.01 4.01 0 00-1.73-3.57zM6 4.5a.5.5 0 110-1 .5.5 0 010 1zm4 0a.5.5 0 110-1 .5.5 0 010 1z"/>
</svg>
