<?xml version="1.0" encoding="UTF-8"?>
<svg xmlns="http://www.w3.org/2000/svg" width="16" height="16" viewBox="0 0 16 16">
  <path fill="#bebebe" d="M11.18 1c.08.83-.24 1.65-.78 2.24-.55.59-1.38 1.05-2.22.99-.1-.8.27-1.65.79-2.18C9.51 1.5 10.4 1.08 11.18 1zm2.75 5.39c-.08.05-1.6.93-1.58 2.77.02 2.2 1.93 2.94 1.96 2.95-.02.05-.3 1.06-1.01 2.1-.62.9-1.26 1.79-2.27 1.81-.5.01-.83-.13-1.18-.28-.37-.16-.76-.32-1.38-.32-.65 0-1.06.17-1.45.33-.33.14-.64.27-1.08.29-1 .03-1.72-.97-2.35-1.87C2.32 12.1 1.42 9.36 2.72 7.51c.64-.92 1.79-1.5 3.03-1.52.56-.01 1.1.2 1.56.38.35.14.66.26.91.26.22 0 .52-.12.89-.27.52-.2 1.17-.46 1.84-.39.46.02 1.76.19 2.6 1.4l-.62.42z"/>
</svg>
